<svg xmlns="http://www.w3.org/2000/svg" viewBox="0 0 200 200">
  <defs>
    <linearGradient id="bg" x1="0%" y1="0%" x2="100%" y2="100%">
      <stop offset="0%" stop-color="#1E2235"/>
      <stop offset="100%" stop-color="#161929"/>
    </linearGradient>
  </defs>
  <rect width="200" height="200" rx="40" fill="url(#bg)"/>
  <!-- Top-left: blue block -->
  <rect x="26" y="34" width="64" height="62" rx="12" fill="#3498DB"/>
  <!-- Top-right: orange block -->
  <rect x="102" y="34" width="72" height="62" rx="12" fill="#F39C12"/>
  <!-- Bottom-left: green block -->
  <rect x="26" y="108" width="72" height="58" rx="12" fill="#2ECC71"/>
  <!-- Bottom-right: purple block -->
  <rect x="110" y="108" width="64" height="58" rx="12" fill="#9B59B6"/>
  <!-- Small decorative elements inside blocks -->
  <rect x="36" y="64" width="44" height="6" rx="3" fill="white" opacity="0.4"/>
  <rect x="36" y="50" width="30" height="6" rx="3" fill="white" opacity="0.5"/>
  <circle cx="148" cy="58" r="18" fill="white" opacity="0.15"/>
  <rect x="118" y="54" width="60" height="8" rx="4" fill="white" opacity="0.4"/>
  <rect x="36" y="122" width="52" height="8" rx="4" fill="white" opacity="0.4"/>
  <rect x="36" y="136" width="38" height="6" rx="3" fill="white" opacity="0.3"/>
  <rect x="120" y="126" width="44" height="6" rx="3" fill="white" opacity="0.4"/>
  <rect x="120" y="140" width="36" height="6" rx="3" fill="white" opacity="0.3"/>
</svg>
