<svg xmlns="http://www.w3.org/2000/svg" viewBox="0 0 200 200">
  <defs>
    <linearGradient id="bg" x1="0%" y1="0%" x2="100%" y2="100%">
      <stop offset="0%" stop-color="#1E2235"/>
      <stop offset="100%" stop-color="#161929"/>
    </linearGradient>
    <linearGradient id="g1" x1="0%" y1="0%" x2="100%" y2="100%">
      <stop offset="0%" stop-color="#1ABC9C"/>
      <stop offset="100%" stop-color="#16A085"/>
    </linearGradient>
  </defs>
  <rect width="200" height="200" rx="40" fill="url(#bg)"/>
  <!-- Gear shape -->
  <path d="
    M100,36 L112,44 L126,40 L132,54 L146,56 L146,72 L158,80 L152,94
    L160,106 L150,116 L152,130 L138,136 L134,150 L120,150 L112,162
    L100,158 L88,162 L80,150 L66,150 L62,136 L48,130 L50,116
    L40,106 L48,94 L42,80 L54,72 L54,56 L68,54 L74,40 L88,44 Z"
    fill="url(#g1)"/>
  <!-- Inner circle cutout -->
  <circle cx="100" cy="100" r="28" fill="#1E2235"/>
  <!-- Inner ring detail -->
  <circle cx="100" cy="100" r="20" fill="none" stroke="url(#g1)" stroke-width="5" opacity="0.4"/>
  <!-- Center dot -->
  <circle cx="100" cy="100" r="7" fill="url(#g1)" opacity="0.7"/>
</svg>
