<svg xmlns="http://www.w3.org/2000/svg" viewBox="0 0 200 200">
  <defs>
    <linearGradient id="bg" x1="0%" y1="0%" x2="100%" y2="100%">
      <stop offset="0%" stop-color="#1E2235"/>
      <stop offset="100%" stop-color="#161929"/>
    </linearGradient>
    <linearGradient id="g1" x1="0%" y1="0%" x2="100%" y2="100%">
      <stop offset="0%" stop-color="#9B59B6"/>
      <stop offset="100%" stop-color="#3498DB"/>
    </linearGradient>
    <linearGradient id="g2" x1="0%" y1="0%" x2="100%" y2="100%">
      <stop offset="0%" stop-color="#8E44AD"/>
      <stop offset="100%" stop-color="#2980B9"/>
    </linearGradient>
  </defs>
  <rect width="200" height="200" rx="40" fill="url(#bg)"/>
  <!-- Kanban columns -->
  <rect x="26" y="50" width="36" height="100" rx="10" fill="url(#g1)" opacity="0.35"/>
  <rect x="72" y="50" width="36" height="100" rx="10" fill="url(#g1)" opacity="0.35"/>
  <rect x="118" y="50" width="36" height="100" rx="10" fill="url(#g1)" opacity="0.35"/>
  <!-- Cards in columns -->
  <rect x="30" y="58" width="28" height="20" rx="5" fill="url(#g1)" opacity="0.8"/>
  <rect x="30" y="84" width="28" height="20" rx="5" fill="url(#g1)" opacity="0.6"/>
  <rect x="76" y="58" width="28" height="20" rx="5" fill="url(#g2)" opacity="0.9"/>
  <rect x="76" y="84" width="28" height="20" rx="5" fill="url(#g2)" opacity="0.7"/>
  <rect x="76" y="110" width="28" height="20" rx="5" fill="url(#g2)" opacity="0.5"/>
  <rect x="122" y="58" width="28" height="20" rx="5" fill="url(#g1)" opacity="0.7"/>
  <!-- Check mark overlay -->
  <circle cx="156" cy="148" r="30" fill="url(#g2)"/>
  <polyline points="140,148 152,162 174,132" stroke="white" stroke-width="8"
            stroke-linecap="round" stroke-linejoin="round" fill="none"/>
</svg>
